<svg xmlns="http://www.w3.org/2000/svg" viewBox="0 0 236.371 136.468" width="59.093" height="34.117">
  <g clip-path="url(#SVGID_2_)" fill="none" stroke="#d8d8d8" stroke-miterlimit="10">
    <path d="M-118.188-.002l-39.394-68.235 39.394-68.235h78.792L0-68.237-39.396-.002z"/>
    <path d="M-118.188 136.468l-39.394-68.235 39.394-68.235h78.792L0 68.233l-39.396 68.235zM-118.188 272.937l-39.394-68.234 39.394-68.235h78.792L0 204.703l-39.396 68.234z"/>
    <path d="M-.002 68.233L-39.396-.002-.002-68.237h78.79L118.187-.002 78.79 68.233z"/>
    <path d="M118.186-.002L78.79-68.237l39.396-68.235h78.79l39.395 68.235L196.978-.002zM-.002 204.703l-39.394-68.235L-.002 68.233h78.79l39.398 68.235-39.397 68.235z"/>
    <path d="M118.186 136.468L78.79 68.233 118.185-.002h78.79l39.395 68.235-39.393 68.235z"/>
    <path d="M236.37 68.233L196.978-.002l39.394-68.235h78.792L354.56-.002 315.16 68.233zM118.186 272.937L78.79 204.703l39.396-68.235h78.79l39.395 68.235-39.393 68.234z"/>
    <path d="M236.37 204.703l-39.393-68.235 39.394-68.235h78.792l39.397 68.235-39.398 68.235z"/>
    <path stroke-width="4" d="M-78.793 68.233L-118.188-.002l39.395-68.235H0L39.393-.002 0 68.233zM39.394-.002L0-68.237l39.394-68.235h78.79l39.397 68.235L118.186-.002zM-78.793 204.703l-39.395-68.235 39.395-68.235H0l39.394 68.235L0 204.703z"/>
    <path stroke-width="4" d="M39.394 136.468L0 68.233 39.393-.002h78.79l39.397 68.235-39.395 68.235zM39.394 272.937L0 204.703l39.394-68.235h78.79l39.397 68.235-39.395 68.234zM157.58 68.233L118.184-.002l39.394-68.235h78.79L275.767-.002 236.37 68.233zM275.767-.002L236.37-68.237l39.397-68.235h78.79l39.395 68.235L354.558-.002z"/>
    <path stroke-width="4" d="M157.58 204.703l-39.395-68.235 39.394-68.235h78.79l39.397 68.235-39.397 68.235zM275.767 136.468L236.37 68.233 275.767-.002h78.79l39.395 68.235-39.394 68.235zM275.767 272.937l-39.397-68.234 39.397-68.235h78.79l39.395 68.235-39.394 68.234z"/>
  </g>
</svg>