<svg xmlns="http://www.w3.org/2000/svg" width="24" height="24" viewBox="0 0 24 24" id="az-flag" y="48"><g fill="none" fill-rule="evenodd"><path fill="#00B9E4" d="M24 4.609V9H.038V4.995A2 2 0 0 1 2.042 3h19.99c.975 0 1.787.691 1.968 1.609z"/><path fill="#ED2939" d="M0 9h24v6H0V9z"/><path fill="#3F9C35" d="M24 17.003V15H0v4.005A2 2 0 0 0 2.005 21h19.99A2 2 0 0 0 24 19.005v-2.002z"/><rect width="23" height="17" x=".5" y="3.5" stroke="#000" stroke-opacity=".05" rx="2"/><g fill="#FFF" transform="translate(9 10)"><path d="M3.837.533A2.365 2.365 0 0 0 2.334 0C1.045 0 0 1.016 0 2.27c0 1.252 1.045 2.268 2.334 2.268.577 0 1.105-.203 1.512-.54-.26.123-.553.192-.862.192-1.092 0-1.977-.86-1.977-1.922 0-1.062.885-1.922 1.977-1.922.306 0 .595.067.853.187z"/><ellipse cx="5.001" cy="2.269" rx="1" ry="1"/></g></g></svg>