<svg xmlns="http://www.w3.org/2000/svg" width="24" height="24" viewBox="0 0 24 24" id="en-flag" y="264"><g fill="none" fill-rule="evenodd"><rect width="24" height="18" y="3" fill="#00247D" rx="2"/><path fill="#FFF" d="M19.396 3l-7.233 7.232L4.931 3H2.005c-.377 0-.73.104-1.032.285l9.069 9.069-8.574 8.574c.171.047.351.072.537.072h3.633l6.525-6.525L18.688 21h3.307c.277 0 .54-.055.78-.156l-8.49-8.49 8.937-8.937A2.003 2.003 0 0 0 21.995 3h-2.6z"/><path fill="#CF142B" d="M20.81 3l-8.647 8.647L3.516 3H2.102l9.354 9.354L2.809 21h1.414l7.94-7.94 7.94 7.94h1.413l-8.646-8.646 9.342-9.342A2.039 2.039 0 0 0 21.995 3h-1.186z"/><path fill="#FFF" d="M9.6 10H0v4h9.6v7h4v-7H24v-4H13.6V3h-4v7z"/><path fill="#CF142B" d="M10.6 11H0v2h10.6v8h2v-8H24v-2H12.6V3h-2v8z"/><rect width="23" height="17" x=".5" y="3.5" stroke="#000" stroke-opacity=".05" rx="2"/></g></svg>